<svg width="1024" height="1024" xmlns="http://www.w3.org/2000/svg" xmlns:xlink="http://www.w3.org/1999/xlink">
 <!-- Generator: Sketch 60.1 (88133) - https://sketch.com -->
 <title>icon1024</title>
 <desc>Created with Sketch.</desc>
 <defs>
  <path id="path-2" d="m140.37305,649l0,-96.66992c0,-16.20443 2.04101,-28.20313 6.12304,-35.9961c7.29818,-13.85416 21.58529,-20.78125 42.86133,-20.78125c1.60808,0 3.71094,0.06185 6.3086,0.18555c2.59765,0.1237 5.5664,0.3711 8.90625,0.74219l0,0l0,-54.17969c-2.35027,-0.1237 -3.86556,-0.21647 -4.5459,-0.27832c-0.68034,-0.06185 -1.5153,-0.09277 -2.50489,-0.09277c-15.83333,0 -28.69791,4.14388 -38.59375,12.43164c-6.06119,4.94791 -13.17382,14.16341 -21.33789,27.64648l0,0l0,-35.2539l-50.46875,0l0,202.24609l53.25196,0zm162.91015,4.45313c10.39063,0 19.4515,-1.36068 27.18262,-4.08204c7.73112,-2.72135 15.74056,-7.79296 24.02832,-15.21484c2.72135,-2.35026 5.07162,-5.07161 7.05078,-8.16406c1.97917,-3.09245 3.21615,-4.94792 3.71094,-5.56641l0,0l0,28.57422l51.39648,0l0,-202.24609l-53.62304,0l0,110.02929c0,12.98828 -1.73177,23.44076 -5.19532,31.35743c-6.67968,14.59635 -19.04947,21.89453 -37.10937,21.89453c-14.10156,0 -23.56445,-5.13347 -28.38867,-15.40039c-2.72136,-5.81381 -4.08203,-14.47266 -4.08203,-25.97657l0,0l0,-121.90429l-54.17969,0l0,121.90429c0,23.13151 2.9069,40.63477 8.7207,52.50977c10.39063,21.52344 30.55339,32.28516 60.48828,32.28516z"/>
  <linearGradient id="linearGradient-1" y2="50%" x2="50%" y1="0%" x1="6.6942345%">
   <stop offset="0%" stop-color="#578498"/>
   <stop offset="100%" stop-color="#2C4D5F"/>
  </linearGradient>
 </defs>
 <g>
  <title>background</title>
  <rect fill="none" id="canvas_background" height="402" width="582" y="-1" x="-1"/>
 </g>
 <g>
  <title>Layer 1</title>
  <g fill-rule="evenodd" fill="none" id="icon1024">
   <rect stroke="#979797" rx="89" height="950.153823" width="922.364472" y="40.69231" x="9.846157" fill="url(#linearGradient-1)" id="Rectangle"/>
   <text stroke="null" transform="matrix(0.9007465549289861,0,0,0.9278845932028901,-15.889570884421687,-31.93953124437624) " x="28.571553" y="78.276805" fill="#FFFFFF" font-weight="normal" font-size="500" font-family="AppleColorEmoji, Apple Color Emoji" id="📨">
    <tspan stroke="null" id="svg_1" y="848.276805" x="520.071553">📨</tspan>
   </text>
   <path stroke="null" fill-rule="nonzero" fill="#FFFFFF" id=".site" d="m102.879909,932.389404l0,-51.305495l-50.640611,0l0,51.305495l50.640611,0zm117.994277,6.370141c28.077964,0 48.83002,-5.882334 62.256188,-17.64702c13.426168,-11.764686 20.139252,-26.943996 20.139252,-45.537931c0,-14.117616 -4.679658,-25.882301 -14.038982,-35.294048c-9.470738,-9.296968 -23.676844,-16.240996 -42.618328,-20.832095c-28.412222,-6.427531 -44.958161,-10.96124 -49.637819,-13.601118c-4.679667,-2.525108 -7.019491,-6.5997 -7.019491,-12.223794c0,-4.476319 2.200551,-8.378751 6.601662,-11.707296c4.401111,-3.328545 11.782711,-4.992817 22.144818,-4.992817c12.590509,0 21.504153,3.328545 26.740913,9.985634c2.785514,3.672873 4.512533,8.665691 5.181049,14.978451l0,0l47.632252,0c-2.116989,-22.955475 -10.334247,-39.110401 -24.651776,-48.464758c-14.317529,-9.354357 -32.841183,-14.031536 -55.570964,-14.031536c-23.9554,0 -42.534766,6.226681 -55.738089,18.680024c-13.203323,12.453343 -19.804985,27.345715 -19.804985,44.677096c0,14.691512 4.233977,25.939691 12.701932,33.744555c8.467954,7.919643 23.008328,14.519343 43.621111,19.799099c28.635066,7.001418 45.181006,11.936846 49.637819,14.806282c4.456822,2.869437 6.685233,7.058808 6.685233,12.568123c0,5.738873 -2.757654,10.043024 -8.27297,12.912461c-5.515316,2.869437 -12.952627,4.30415 -22.311952,4.30415c-15.933126,0 -26.852336,-3.271155 -32.757621,-9.813465c-3.342607,-3.672873 -5.515307,-9.870855 -6.51809,-18.593935l0,0l-48.300778,0c0,19.282602 6.824506,35.15057 20.47351,47.603922c13.649013,12.453343 34.791038,18.680015 63.426105,18.680015zm166.629312,-216.412769l0,-45.279683l-48.300769,0l0,45.279683l48.300769,0zm0,210.042628l0,-187.661031l-48.300769,0l0,187.661031l48.300769,0zm60.835585,-9.469137c8.24511,8.83786 23.621133,12.855071 46.128069,12.051625l0,0l22.562647,-0.860826l0,-36.671382c-1.559886,0.114779 -3.147623,0.200868 -4.76322,0.258249c-1.615597,0.05739 -3.147632,0.086089 -4.596095,0.086089c-9.693582,0 -15.487445,-0.946916 -17.381598,-2.840747c-1.894144,-1.893822 -2.841216,-6.68578 -2.841216,-14.375864l0,0l0,-99.167666l29.582129,0l0,-34.94971l-29.582129,0l0,-52.33849l-47.130861,0l0,52.33849l-25.403872,0l0,34.94971l25.403872,0l0,115.523441c0,11.707296 2.674091,20.372987 8.022274,25.997081zm172.813154,15.667118c28.077955,0 49.916366,-9.124808 65.515233,-27.374414c10.02784,-11.477738 15.654579,-22.783306 16.880207,-33.916715l0,0l-48.635045,0c-2.562669,5.509315 -5.515307,9.813465 -8.857924,12.912461c-6.12813,5.738864 -14.094693,8.608301 -23.899688,8.608301c-9.247902,0 -17.158753,-2.352939 -23.732564,-7.058808c-10.807788,-7.575305 -16.54594,-20.774714 -17.214465,-39.598199l0,0l124.67951,0c0.222845,-16.183616 -0.278547,-28.579569 -1.504175,-37.187879c-2.116989,-14.691503 -6.740935,-27.603964 -13.871848,-38.737372c-7.910852,-12.625512 -17.938701,-21.86509 -30.08353,-27.718734c-12.144829,-5.853653 -25.793841,-8.78047 -40.94702,-8.78047c-25.515295,0 -46.267351,8.665691 -62.256188,25.997081c-15.988846,17.331381 -23.98326,42.238077 -23.98326,74.720078c0,34.662771 8.857924,59.684246 26.57378,75.064416c17.715856,15.38017 38.161515,23.070254 61.336976,23.070254zm35.264579,-118.794606l-74.038908,0c1.559886,-12.166404 5.376043,-21.8077 11.448453,-28.923898c6.072419,-7.116197 14.623936,-10.674301 25.654568,-10.674301c10.139263,0 18.635068,3.357244 25.487434,10.071714c6.852357,6.714479 10.668505,16.556644 11.448453,29.526485l0,0z"/>
   <g stroke="null" fill-rule="nonzero" id="ru">
    <use stroke="null" transform="matrix(0.9007465549289861,0,0,0.9278845932028901,-15.889570884421687,-31.93953124437624) " x="28.571553" y="78.276805" id="svg_2" xlink:href="#path-2" fill="#FFFFFF"/>
    <use stroke="null" transform="matrix(0.9007465549289861,0,0,0.9278845932028901,-15.889570884421687,-31.93953124437624) " x="28.571553" y="78.276805" id="svg_3" xlink:href="#path-2" fill="#25AE90"/>
   </g>
   <path stroke="null" fill-rule="nonzero" fill="#FFFFFF" id="GO" d="m228.395068,431.815597c26.095844,0 48.086733,-5.663353 65.97265,-16.990068c10.409018,-6.493986 22.137486,-17.669678 35.185412,-33.527078l0,0l6.817174,41.682311l44.861394,0l0,-179.188647l-135.024016,0l0,55.72744l74.988907,0c-3.371936,21.898318 -12.31489,39.605752 -26.828871,53.122302c-14.513981,13.516541 -33.132935,20.274817 -55.856843,20.274817c-23.163734,0 -43.835164,-8.53279 -62.014293,-25.598378c-18.179128,-17.065588 -27.268697,-46.137493 -27.268697,-87.215714c0,-40.776176 8.393192,-71.320559 25.179568,-91.633132c16.786367,-20.312581 38.227486,-30.468872 64.323329,-30.468872c13.634348,0 26.022541,2.49188 37.164587,7.475632c19.938403,9.061378 32.47321,24.994288 37.604412,47.79875l0,0l66.632375,0c-3.665147,-32.167875 -17.995871,-59.012198 -42.992174,-80.53296c-24.996302,-21.520761 -58.092586,-32.281133 -99.288833,-32.281133c-47.500311,0 -85.691145,16.310467 -114.572503,48.931409c-28.881357,32.620943 -43.322036,75.964511 -43.322036,130.030703c0,53.462103 14.294073,95.597481 42.88222,126.406154c27.415302,30.657641 62.600715,45.986461 105.556237,45.986461zm360.870389,0.453077c46.327458,0 81.732779,-12.987972 106.215962,-38.963906c32.69311,-31.86583 49.039669,-77.77679 49.039669,-137.732869c0,-61.164269 -16.346559,-107.075228 -49.039669,-137.732869c-24.483183,-25.975934 -59.888504,-38.963906 -106.215962,-38.963906c-46.327467,0 -81.732788,12.987972 -106.215971,38.963906c-32.839715,30.657641 -49.259577,76.568601 -49.259577,137.732869c0,59.95608 16.419862,105.867039 49.259577,137.732869c24.483183,25.975934 59.888504,38.963906 106.215971,38.963906zm0,-59.125465c-26.82888,0 -48.233339,-10.194046 -64.213384,-30.58213c-15.980037,-20.388093 -23.970064,-49.384486 -23.970064,-86.989181c0,-37.604704 7.990027,-66.601097 23.970064,-86.989181c15.980046,-20.388093 37.384504,-30.582139 64.213384,-30.582139c26.828871,0 48.123376,10.231802 63.883513,30.695406c15.760128,20.463595 23.640192,49.422242 23.640192,86.875914c0,37.604694 -7.880064,66.601088 -23.640192,86.989181c-15.760137,20.388083 -37.054642,30.58213 -63.883513,30.58213z"/>
  </g>
 </g>
</svg>